<?xml version="1.0" encoding="UTF-8"?>
<!DOCTYPE svg PUBLIC "-//W3C//DTD SVG 1.1//EN" "http://www.w3.org/Graphics/SVG/1.1/DTD/svg11.dtd">
<!-- Creator: CorelDRAW -->
<svg xmlns="http://www.w3.org/2000/svg" xml:space="preserve" width="136px" height="192px" version="1.1" style="shape-rendering:geometricPrecision; text-rendering:geometricPrecision; image-rendering:optimizeQuality; fill-rule:evenodd; clip-rule:evenodd"
viewBox="0 0 136 192.34"
 xmlns:xlink="http://www.w3.org/1999/xlink"
 xmlns:xodm="http://www.corel.com/coreldraw/odm/2003">
 <defs>
  <style type="text/css">
   <![CDATA[
    .str0 {stroke:#FEFEFE;stroke-width:0.05;stroke-miterlimit:22.9256}
    .fil0 {fill:none}
    .fil4 {fill:#FEFEFE}
    .fil2 {fill:#FEFEFE}
    .fil1 {fill:white}
    .fil3 {fill:#F27D00}
    .fil5 {fill:#BA5205}
   ]]>
  </style>
 </defs>
 <g id="Layer_x0020_1">
  <metadata id="CorelCorpID_0Corel-Layer"/>
  <rect class="fil0" x="60.36" y="76.06" width="10.53" height="10.53"/>
  <rect class="fil1" x="-202.57" y="-297.32" width="601.94" height="300.97"/>
  <g id="_2283104895552">
   <path class="fil2" d="M66.36 78.06c-0.07,-0.02 -0.14,-0.07 -0.22,-0.1 -0.61,-0.25 -1.27,-0.2 -1.82,0.14 -0.14,0.09 -0.25,0.19 -0.36,0.28 -0.06,0.06 -0.24,0.29 -0.28,0.37 -0.18,0.31 -0.29,0.58 -0.31,1 -0.13,-0.04 -0.17,-0.09 -0.36,-0.13 -0.56,-0.12 -1.08,0.07 -1.45,0.45 -0.07,0.06 -0.16,0.2 -0.21,0.28 -0.35,0.58 -0.25,1.36 0.21,1.84 0.09,0.09 0.07,0.05 0.14,0.11 0.04,0.04 0.09,0.07 0.14,0.1 0.21,0.12 0.54,0.18 0.81,0.19 0.48,0.02 0.52,-0.02 0.93,-0.04l-0.14 0.18c-0.16,0.2 -0.41,0.54 -0.56,0.74 -0.02,0.03 -0.04,0.06 -0.07,0.09 -0.24,0.34 -0.51,0.7 -0.75,1.05 -0.02,0.03 -0.04,0.06 -0.06,0.09l-0.34 0.48c-0.1,0.13 -0.18,0.25 -0.27,0.38 -0.1,0.13 -0.14,0.34 -0.09,0.53 0.07,0.21 0.13,0.25 0.29,0.37 0.22,0.17 1.43,0.13 1.8,0.09 0.09,-0.01 0.19,-0.02 0.28,-0.03 0.05,-0.01 0.1,-0.02 0.14,-0.02 0.05,-0.01 0.08,-0.01 0.13,-0.02 0.16,-0.05 0.29,-0.18 0.36,-0.29 0.08,-0.12 0.16,-0.3 0.2,-0.46 0.95,0.04 0.86,0.03 1.78,-0.07 0.04,0.14 0.23,0.46 0.37,0.57 0.04,0.04 0.06,0.05 0.11,0.08 0.08,0.04 0.22,0.07 0.31,0.06 0.47,-0.03 0.96,-0.08 1.42,-0.1 0.69,-0.02 1.02,-0.68 0.53,-1.27 -0.04,-0.04 -0.06,-0.06 -0.09,-0.1 -0.15,-0.17 -0.29,-0.36 -0.42,-0.53 -0.16,-0.2 -0.34,-0.46 -0.47,-0.67 -0.2,-0.33 -0.36,-0.64 -0.49,-1.04 -0.13,-0.42 -0.17,-0.89 -0.1,-1.35 0.02,-0.13 0.07,-0.32 0.11,-0.44 0.02,-0.05 0.03,-0.05 0.12,-0.09 0.17,-0.08 0.32,-0.19 0.47,-0.29 0.14,-0.09 0.39,-0.3 0.53,-0.42 0.21,-0.19 0.48,-0.46 0.66,-0.66 0.11,-0.13 0.23,-0.27 0.34,-0.42 0.19,-0.29 0.42,-0.62 0.42,-1.09 0.01,-0.32 -0.08,-0.63 -0.23,-0.9 -0.56,-0.98 -1.92,-1.26 -2.82,-0.53 -0.18,0.14 -0.24,0.21 -0.37,0.39 -0.1,0.14 -0.18,0.32 -0.25,0.51 -0.07,0.23 -0.08,0.44 -0.07,0.69z"/>
   <path class="fil3" d="M61.84 80.51c0.34,-0.46 0.98,-0.56 1.43,-0.23 0.44,0.33 0.79,1.09 1.53,1.31 -0.34,0.46 -2.31,0.68 -2.76,0.35 -0.44,-0.33 -0.53,-0.97 -0.2,-1.43zm4.82 4.76c0.09,0.23 0.26,0.6 0.36,0.6l1.41 -0.1c0.32,0.01 0.43,-0.18 0.2,-0.45 -1.18,-1.39 -2.24,-2.95 -1.45,-4.87 0.87,-0.3 2.38,-1.81 2.42,-2.46 0.05,-0.74 -0.53,-1.38 -1.28,-1.43 -0.76,-0.05 -1.41,0.51 -1.46,1.25 -0.04,0.73 0.41,1.7 0.05,2.64l-0.01 0c-0.1,0.32 -0.3,0.6 -0.6,0.81 -0.33,0.24 -0.73,0.33 -1.11,0.29 -1.14,1.02 -2.43,2.97 -3.39,4.3 -0.03,0.03 -0.04,0.17 0.07,0.19 0.63,0.07 1.26,0.05 1.89,-0.04 0.16,0.01 0.26,-0.46 0.38,-0.76 0.01,-0.02 0.02,-0.03 0.05,-0.04 0.85,0.08 1.37,0.08 2.19,-0.07 0.22,-0.05 0.2,-0.05 0.28,0.14zm-1.29 -6.97c0.82,0 1.5,0.69 1.5,1.55 0,0.86 -0.68,1.55 -1.5,1.55 -0.83,0 -1.5,-0.69 -1.5,-1.55 0,-0.86 0.67,-1.55 1.5,-1.55z"/>
   <path class="fil4 str0" d="M65.86 82.44c0.04,0.53 0.13,1.01 0.32,1.44 0.09,0.2 0.09,0.21 -0.08,0.24 -0.42,0.08 -0.89,0.07 -1.34,0.01 -0.18,-0.02 -0.17,-0.08 -0.1,-0.22 0.21,-0.47 0.58,-1.04 1.01,-1.5 0.15,-0.16 0.18,-0.18 0.19,0.03z"/>
   <path class="fil5" d="M66.75 79.25c0.07,0.18 0.12,0.39 0.12,0.6 0,0.86 -0.68,1.55 -1.5,1.55 -0.22,0 -0.42,-0.05 -0.6,-0.13 0.6,0.01 1.82,-0.2 1.98,-2.02z"/>
   <path class="fil5" d="M67.18 80.45c0.87,-0.3 2.38,-1.81 2.42,-2.46 0.05,-0.74 -0.53,-1.38 -1.28,-1.43 1.55,1.16 0.3,2.87 -1.14,3.89z"/>
   <path class="fil5" d="M64.8 81.59c-0.34,0.46 -2.31,0.67 -2.76,0.34 -0.3,-0.22 -0.44,-0.59 -0.39,-0.95 0.81,1.44 2.93,0.79 3.15,0.61z"/>
   <path class="fil5" d="M66.66 85.27c0.04,0.09 0.09,0.21 0.14,0.31 0.08,0.16 0.16,0.29 0.22,0.29l1.41 -0.1c0.32,0.01 0.43,-0.18 0.2,-0.45 -1.18,-1.39 -2.24,-2.95 -1.45,-4.87 -0.51,1.2 -0.69,3.14 0.78,4.85 0.27,0.3 -0.98,0.16 -1.3,-0.03z"/>
   <path class="fil5" d="M61.87 86.04c0.63,0.07 1.26,0.05 1.89,-0.04 0.16,0.01 0.26,-0.46 0.38,-0.76 -0.2,0.56 -1.87,0.87 -2.27,0.8z"/>
  </g>
 </g>
</svg>
